<svg id="Layer_1" class="livebutt" data-name="Layer 1" xmlns="http://www.w3.org/2000/svg" viewBox="0 0 550 151.05">
  <defs>
    <style>
      .cls-1 {
        fill: #fb4a59;
      }

      .cls-2 {
        fill: #f2f2f2;
      }
    </style>
  </defs>
  <path class="cls-1" d="M474.47,151.05H75.53A75.52,75.52,0,0,1,0,75.53H0A75.52,75.52,0,0,1,75.53,0H474.47A75.53,75.53,0,0,1,550,75.53h0A75.53,75.53,0,0,1,474.47,151.05Z"></path>
  <circle class="cls-2" cx="69.52" cy="76.05" r="24"></circle>
  <g>
    <path class="cls-2" d="M153.3,41.77l-29.67,69.46h14.88l8-19h24.07l8.54,19H194L163,41.77Zm11.28,37.3H152.24l5.94-14.38Z"></path>
    <path class="cls-2" d="M253.56,51.31c-7-6.7-15.94-10.09-26.46-10.09s-19.38,3.4-26.31,10.11S190.3,66.66,190.3,76.89c0,10,3.51,18.43,10.42,25.08s15.59,10,25.87,10c10.73,0,19.76-3.35,26.86-10s10.76-15.17,10.76-25.29S260.63,58,253.56,51.31ZM227.19,98.52c-6.51,0-11.75-2-16.05-6.18a20.46,20.46,0,0,1-6.34-15.45c0-6.48,2.07-11.64,6.32-15.78s9.63-6.17,16.35-6.17a21.76,21.76,0,0,1,15.88,6.24,20.32,20.32,0,0,1,6.41,15.34,20.86,20.86,0,0,1-6.42,15.69A22,22,0,0,1,227.19,98.52Z"></path>
    <polygon class="cls-2" points="310.97 83.27 293.35 42.14 278.67 42.14 308.44 111.5 313.82 111.5 343.03 42.14 328.47 42.14 310.97 83.27"></polygon>
    <rect class="cls-2" x="346.13" y="42.14" width="14.18" height="69.09"></rect>
    <polygon class="cls-2" points="413.22 42.14 395.72 83.27 378.1 42.14 363.42 42.14 393.19 111.5 398.58 111.5 427.78 42.14 413.22 42.14"></polygon>
    <path class="cls-2" d="M487.43,51.31c-7-6.7-15.93-10.09-26.45-10.09s-19.39,3.4-26.32,10.11-10.48,15.33-10.48,25.56c0,10,3.51,18.43,10.42,25.08s15.59,10,25.87,10c10.73,0,19.76-3.35,26.85-10s10.77-15.17,10.77-25.29S494.51,58,487.43,51.31ZM461.07,98.52c-6.51,0-11.76-2-16.05-6.18a20.42,20.42,0,0,1-6.34-15.45c0-6.48,2.07-11.64,6.32-15.78s9.62-6.17,16.34-6.17a21.78,21.78,0,0,1,15.89,6.24,20.36,20.36,0,0,1,6.41,15.34,20.86,20.86,0,0,1-6.42,15.69A22,22,0,0,1,461.07,98.52Z"></path>
  </g>
</svg>